<?xml version="1.0" standalone="no"?>
<!DOCTYPE svg PUBLIC "-//W3C//DTD SVG 20010904//EN"
 "http://www.w3.org/TR/2001/REC-SVG-20010904/DTD/svg10.dtd">
<svg version="1.0" xmlns="http://www.w3.org/2000/svg"
 width="700.000000pt" height="700.000000pt" viewBox="0 0 700.000000 700.000000"
 preserveAspectRatio="xMidYMid meet">
<metadata>
Created by potrace 1.11, written by Peter Selinger 2001-2013
</metadata>
<g transform="translate(0.000000,700.000000) scale(0.100000,-0.100000)"
fill="#000000" stroke="none">
<path d="M3474 5946 c-94 -101 -339 -426 -478 -636 -203 -305 -280 -446 -456
-835 -35 -78 -122 -322 -160 -450 -25 -87 -23 -80 -63 -253 -18 -78 -35 -140
-38 -138 -2 3 -16 7 -29 9 -14 3 -70 14 -125 26 -123 25 -331 60 -399 67 -28
3 -62 7 -76 9 -73 13 -252 20 -470 20 -282 -1 -374 -7 -595 -41 -16 -3 -46 -7
-65 -10 -92 -14 -330 -68 -330 -74 0 -10 114 -284 188 -450 144 -325 342 -675
496 -875 17 -22 34 -44 38 -50 41 -56 152 -181 242 -270 271 -269 573 -460
776 -491 191 -29 405 32 521 148 80 80 98 156 60 262 -52 149 -218 301 -699
644 -26 19 -58 43 -72 53 -14 11 -122 90 -240 175 -118 86 -228 168 -245 183
-36 32 -105 112 -105 122 0 7 48 4 124 -7 52 -7 166 -49 511 -189 525 -212
712 -267 910 -267 98 -1 132 3 185 21 167 57 278 181 345 384 36 110 59 256
80 492 4 39 8 90 11 115 2 25 6 75 9 111 10 121 22 225 31 274 2 11 6 43 9 70
3 28 8 63 12 80 3 16 7 43 8 60 4 42 15 127 20 155 2 13 7 46 11 74 3 28 7 60
8 71 2 11 6 45 10 75 14 108 13 106 53 105 39 -1 37 4 67 -130 2 -11 9 -40 15
-65 5 -25 13 -70 16 -100 11 -101 15 -135 20 -175 2 -22 7 -62 10 -90 3 -27 7
-66 10 -85 3 -19 7 -56 10 -82 11 -100 16 -145 25 -218 5 -41 12 -97 15 -125
15 -133 16 -147 30 -250 2 -11 6 -40 9 -65 3 -25 8 -56 10 -70 3 -14 7 -47 11
-74 23 -185 71 -312 150 -403 63 -72 205 -139 300 -142 166 -5 245 2 410 35
140 28 510 152 640 214 11 5 92 40 180 78 88 38 180 79 205 90 124 56 163 72
174 72 12 0 52 -48 58 -68 2 -5 -60 -56 -137 -112 -793 -583 -996 -741 -1125
-876 -103 -108 -134 -173 -134 -279 -1 -63 4 -89 21 -121 62 -117 167 -164
373 -166 215 -1 374 40 550 145 327 195 596 461 832 822 153 235 364 656 495
990 17 45 22 55 58 139 14 32 25 64 25 71 0 8 -28 15 -87 19 -49 4 -106 9
-128 11 -22 2 -69 6 -105 9 -36 3 -87 8 -115 11 -27 3 -79 7 -115 10 -36 2
-112 8 -170 12 -192 13 -628 7 -730 -12 -14 -2 -54 -6 -90 -9 -111 -10 -164
-15 -200 -20 -19 -3 -57 -8 -85 -11 -27 -3 -102 -12 -165 -19 -63 -7 -121 -11
-127 -8 -7 2 -13 13 -13 24 0 11 -18 94 -40 184 -158 644 -459 1225 -974 1879
-39 50 -73 92 -76 95 -3 3 -26 30 -51 61 l-45 56 -20 -21z"/>
<path d="M5557 5160 c-38 -17 -85 -37 -105 -46 -21 -9 -46 -20 -57 -24 -11 -5
-64 -29 -119 -54 -54 -25 -100 -46 -103 -46 -9 0 -320 -158 -363 -184 -63 -39
-108 -84 -132 -131 -35 -66 -22 -136 65 -370 37 -99 67 -156 118 -223 17 -22
17 -22 159 173 78 107 146 195 150 195 31 0 27 -33 -30 -251 -33 -123 -62
-230 -65 -238 -4 -11 18 -12 132 -7 279 14 337 27 401 89 l33 32 -6 470 c-4
259 -8 509 -8 558 -1 48 -2 87 -2 87 0 -1 -31 -14 -68 -30z"/>
<path d="M1396 5163 c-3 -10 -8 -40 -12 -68 -3 -27 -8 -52 -9 -55 -2 -3 -14
-64 -26 -135 -19 -110 -22 -176 -25 -427 -3 -272 -2 -302 17 -370 38 -137 93
-164 313 -154 136 6 219 13 242 21 8 2 -12 85 -58 245 -65 229 -68 243 -51
256 25 18 40 17 55 -4 7 -11 56 -66 108 -123 52 -56 120 -131 150 -165 30 -34
59 -61 64 -60 4 1 40 87 78 191 38 105 85 231 103 280 18 50 30 93 27 96 -9 8
-958 489 -965 489 -3 0 -8 -8 -11 -17z"/>
<path d="M3429 2237 c-24 -40 -52 -88 -63 -107 -10 -19 -26 -48 -36 -65 -64
-105 -184 -383 -217 -500 -22 -79 -23 -85 -36 -173 -8 -57 -16 -83 -27 -87
-17 -5 -381 -85 -388 -85 -9 0 43 -37 83 -58 73 -40 249 -89 380 -105 207 -27
579 -28 725 -2 14 3 40 7 58 10 17 3 47 7 65 10 109 18 286 76 350 116 l29 17
-74 17 c-40 9 -80 18 -88 20 -8 2 -53 13 -100 25 -100 26 -89 23 -166 39 -34
7 -66 16 -72 20 -6 4 -14 38 -17 76 -4 39 -13 97 -21 130 -8 33 -16 67 -18 76
-7 26 -66 192 -80 224 -8 17 -28 64 -46 105 -17 41 -59 127 -92 190 -34 63
-68 127 -75 142 -8 15 -18 30 -22 32 -4 3 -27 -28 -52 -67z"/>
</g>
</svg>
